#Comment line ignore any data following # character 
#Hierarchical Translation and Rotation (.htr) file 
[Header]	
#Header keywords are followed by a single value 
FileType HTR		#Single word string
DataType HTRS		#Translation followed by rotation and scale data
FileVersion 1		#integer
NumSegments 25		#integer
NumFrames 5		#integer
DataFrameRate 30		#integer, data frame rate in this file
EulerRotationOrder ZYX
CalibrationUnits mm
RotationUnits Degrees
GlobalAxisofGravity Y
BoneLengthAxis Y
ScaleFactor 1.00
[SegmentNames&Hierarchy]
#CHILD	PARENT
BN_Tick_Root GLOBAL
BN_Torso BN_Tick_Root
BN_L_Leg_Front01 BN_Torso
BN_L_Leg_Rear01 BN_Torso
BN_MetalTop BN_Torso
BN_Neck BN_Torso
BN_R_Leg_Front01 BN_Torso
BN_R_Leg_Rear01 BN_Torso
BN_Sack BN_Torso
BN_L_Leg_Front02 BN_L_Leg_Front01
BN_L_Leg_Front03 BN_L_Leg_Front02
BN_L_Leg_Rear02 BN_L_Leg_Rear01
BN_L_Leg_Rear03 BN_L_Leg_Rear02
BN_Head BN_Neck
BN_Needle BN_Head
BN_R_Leg_Front02 BN_R_Leg_Front01
BN_R_Leg_Front03 BN_R_Leg_Front02
BN_R_Leg_Rear02 BN_R_Leg_Rear01
BN_R_Leg_Rear03 BN_R_Leg_Rear02
BN_SackDef01 BN_Sack
BN_SackDef02 BN_Sack
BN_SackDef03 BN_Sack
BN_SackDef04 BN_Sack
BN_SackDef05 BN_Sack
BN_SackDef06 BN_Sack
[BasePosition]
#SegmentName Tx, Ty, Tz, Rx, Ry, Rz, BoneLength
BN_Tick_Root 0.000000 0.000000 0.000000 -90.000000 0.000000 0.000000 10.000000 
BN_Torso 0.000000 0.000000 0.000000 0.000000 0.000000 0.000000 10.000000 
BN_L_Leg_Front01 0.000000 0.000000 0.000000 0.000000 0.000000 0.000000 10.000000 
BN_L_Leg_Rear01 0.000000 0.000000 0.000000 0.000000 0.000000 0.000000 10.000000 
BN_MetalTop 0.000000 0.000000 0.000000 0.000000 0.000000 0.000000 10.000000 
BN_Neck 0.000000 0.000000 0.000000 0.000000 0.000000 0.000000 10.000000 
BN_R_Leg_Front01 0.000000 0.000000 0.000000 0.000000 0.000000 0.000000 10.000000 
BN_R_Leg_Rear01 0.000000 0.000000 0.000000 0.000000 0.000000 0.000000 10.000000 
BN_Sack 0.000000 0.000000 0.000000 0.000000 0.000000 0.000000 10.000000 
BN_L_Leg_Front02 0.000000 0.000000 0.000000 0.000000 0.000000 0.000000 10.000000 
BN_L_Leg_Front03 0.000000 0.000000 0.000000 0.000000 0.000000 0.000000 10.000000 
BN_L_Leg_Rear02 0.000000 0.000000 0.000000 0.000000 0.000000 0.000000 10.000000 
BN_L_Leg_Rear03 0.000000 0.000000 0.000000 0.000000 0.000000 0.000000 10.000000 
BN_Head 0.000000 0.000000 0.000000 0.000000 0.000000 0.000000 10.000000 
BN_Needle 0.000000 0.000000 0.000000 0.000000 0.000000 0.000000 10.000000 
BN_R_Leg_Front02 0.000000 0.000000 0.000000 0.000000 0.000000 0.000000 10.000000 
BN_R_Leg_Front03 0.000000 0.000000 0.000000 0.000000 0.000000 0.000000 10.000000 
BN_R_Leg_Rear02 0.000000 0.000000 0.000000 0.000000 0.000000 0.000000 10.000000 
BN_R_Leg_Rear03 0.000000 0.000000 0.000000 0.000000 0.000000 0.000000 10.000000 
BN_SackDef01 0.000000 0.000000 0.000000 0.000000 0.000000 0.000000 10.000000 
BN_SackDef02 0.000000 0.000000 0.000000 0.000000 0.000000 0.000000 10.000000 
BN_SackDef03 0.000000 0.000000 0.000000 0.000000 0.000000 0.000000 10.000000 
BN_SackDef04 0.000000 0.000000 0.000000 0.000000 0.000000 0.000000 10.000000 
BN_SackDef05 0.000000 0.000000 0.000000 0.000000 0.000000 0.000000 10.000000 
BN_SackDef06 0.000000 0.000000 0.000000 0.000000 0.000000 0.000000 10.000000 
#Beginning of Data. Separated by tabs
#Fr	Tx	Ty	Tz	Rx	Ry	Rz	SF
[BN_Tick_Root]
33 0.000000 0.000000 0.000000 0.000000 0.000000 -0.000020 0.000000
34 0.000000 0.000000 0.000000 0.000000 0.000000 -0.000020 0.000000
35 0.000000 0.000000 0.000000 0.000000 0.000000 -0.000020 0.000000
36 0.000000 0.000000 0.000000 0.000000 0.000000 -0.000020 0.000000
37 0.000000 0.000000 0.000000 0.000000 0.000000 -0.000020 0.000000
[BN_Torso]
33 3.400748 109.076019 174.046539 4.569457 -9.528925 4.807676 205.429657
34 3.400748 109.076019 174.046539 4.577990 -8.876728 4.309093 205.429657
35 3.400748 109.076019 174.046539 4.602260 -7.462831 3.377472 205.429657
36 3.400748 109.076019 174.046539 4.645637 -6.103707 2.872040 205.429657
37 3.400748 109.076019 174.046539 5.602957 -5.243678 3.195332 205.429657
[BN_L_Leg_Front01]
33 -68.477791 10.734189 -26.804373 -39.085766 43.735546 169.343719 74.316254
34 -68.477791 10.734189 -26.804373 -39.238056 44.523983 169.921249 74.316254
35 -68.477791 10.734189 -26.804373 -39.500565 46.261093 171.021896 74.316254
36 -68.477791 10.734189 -26.804373 -39.579681 47.976059 171.684418 74.316254
37 -68.477791 10.734189 -26.804373 -38.087761 49.291744 172.526886 74.316254
[BN_L_Leg_Rear01]
33 -72.133743 -73.994843 -18.268616 60.487030 27.615963 -130.961044 104.939293
34 -72.133743 -73.994843 -18.268616 60.895714 28.193592 -130.017960 104.939293
35 -72.133743 -73.994843 -18.268616 61.879307 29.401308 -128.116287 104.939293
36 -72.133743 -73.994843 -18.268616 62.993427 30.470608 -126.689476 104.939293
37 -72.133743 -73.994843 -18.268616 64.506714 30.173523 -126.174950 104.939293
[BN_MetalTop]
33 0.000008 13.737477 26.403606 94.581665 -32.806854 -98.412727 29.763546
34 0.000008 13.737477 26.403606 94.463966 -32.107262 -98.351891 29.763546
35 0.000008 13.737477 26.403606 94.308525 -31.195127 -98.270004 29.763546
36 0.000008 13.737477 26.403606 94.114510 -30.043633 -98.171661 29.763546
37 0.000008 13.737477 26.403606 93.924919 -28.891869 -98.078896 29.763546
[BN_Neck]
33 0.000014 95.233284 10.002091 -89.999672 -65.297531 89.999657 95.757088
34 0.000014 95.233284 10.002091 -89.999672 -65.297531 89.999657 95.757088
35 0.000014 95.233284 10.002091 -89.999672 -65.297531 89.999657 95.757088
36 0.000014 95.233284 10.002091 -89.999672 -65.297531 89.999657 95.757088
37 0.000014 95.233284 10.002091 -89.999672 -65.297531 89.999657 95.757088
[BN_R_Leg_Front01]
33 68.477768 10.734107 -26.804314 33.868786 69.636040 -6.371054 74.316193
34 68.477768 10.734107 -26.804314 34.580524 68.878334 -4.949443 74.316193
35 68.477768 10.734107 -26.804314 35.760376 67.198486 -2.445294 74.316193
36 68.477768 10.734107 -26.804314 36.374691 65.528122 -1.108511 74.316193
37 68.477768 10.734107 -26.804314 34.213028 64.430267 -3.640909 74.316193
[BN_R_Leg_Rear01]
33 72.133751 -73.994873 -18.268644 -79.903908 49.764545 -75.291908 104.939331
34 72.133751 -73.994873 -18.268644 -78.970573 49.620663 -73.763458 104.939331
35 72.133751 -73.994873 -18.268644 -76.975281 49.151741 -70.684174 104.939331
36 72.133751 -73.994873 -18.268644 -75.096413 48.463936 -68.307816 104.939331
37 72.133751 -73.994873 -18.268644 -74.409813 46.710545 -68.134720 104.939331
[BN_Sack]
33 -0.000000 -78.024918 33.657791 91.379883 -11.014522 -97.199577 84.974907
34 -0.000000 -78.024918 33.657791 91.379875 -11.014523 -97.199577 84.974907
35 -0.000000 -78.024918 33.657791 91.379875 -11.014522 -97.199570 84.974907
36 -0.000000 -78.024918 33.657791 91.379875 -11.014523 -97.199577 84.974907
37 -0.000000 -78.024918 33.657791 91.379875 -11.014523 -97.199577 84.974907
[BN_L_Leg_Front02]
33 142.805023 -0.000015 -0.000104 -0.258221 0.996742 -159.241455 142.805023
34 142.805023 -0.000015 -0.000104 -0.258282 0.995953 -159.231384 142.805023
35 142.805023 -0.000015 -0.000104 -0.257277 0.996213 -159.115707 142.805023
36 142.805023 -0.000015 -0.000104 -0.251111 0.988702 -158.808731 142.805023
37 142.805023 -0.000015 -0.000104 -0.244985 0.981157 -158.501740 142.805023
[BN_L_Leg_Front03]
33 124.143021 -0.000045 0.000007 0.352129 -0.206224 152.674408 124.143021
34 124.143021 -0.000045 0.000007 0.352150 -0.206188 152.662766 124.143021
35 124.143021 -0.000045 0.000007 0.352171 -0.206152 152.651123 124.143021
36 124.143021 -0.000045 0.000007 0.352862 -0.207242 152.484772 124.143021
37 124.143021 -0.000045 0.000007 0.353557 -0.208330 152.318405 124.143021
[BN_L_Leg_Rear02]
33 139.939041 0.000075 -0.000022 0.106652 -0.225972 88.538231 139.939041
34 139.939041 0.000075 -0.000022 0.108745 -0.227544 88.376144 139.939041
35 139.939041 0.000075 -0.000022 0.110842 -0.229111 88.214066 139.939041
36 139.939041 0.000075 -0.000022 0.100436 -0.211624 88.021362 139.939041
37 139.939041 0.000075 -0.000022 0.105832 -0.220274 88.021355 139.939041
[BN_L_Leg_Rear03]
33 142.839615 0.000179 -0.000060 0.000327 -0.002324 -106.014786 142.839615
34 142.839615 0.000179 -0.000060 0.000323 -0.002325 -105.810181 142.839615
35 142.839615 0.000179 -0.000060 0.000319 -0.002325 -105.605576 142.839615
36 142.839615 0.000179 -0.000060 0.000314 -0.002326 -105.375671 142.839615
37 142.839615 0.000179 -0.000060 0.000314 -0.002326 -105.375671 142.839615
[BN_Head]
33 57.062447 -0.000030 0.000000 -5.195386 12.967232 -16.328720 57.062447
34 57.062447 -0.000030 0.000000 -4.734306 12.286774 -16.299973 57.062447
35 57.062447 -0.000030 0.000000 -3.894904 10.816131 -16.244463 57.062447
36 57.062447 -0.000030 0.000000 -3.481461 9.424334 -16.183760 57.062447
37 57.062447 -0.000030 0.000000 -3.862217 8.585447 -15.252769 57.062447
[BN_Needle]
33 46.997841 425.919403 -0.000098 0.000003 0.000030 87.896805 428.504547
34 46.997841 425.919373 -0.000097 0.000003 0.000030 87.896805 428.504517
35 46.997837 425.919373 -0.000097 0.000003 0.000030 87.896805 428.504517
36 46.997837 425.919373 -0.000097 0.000003 0.000030 87.896805 428.504517
37 46.997833 425.919373 -0.000096 0.000003 0.000030 87.896805 428.504517
[BN_R_Leg_Front02]
33 142.804947 -0.000060 0.000060 0.293198 1.020081 162.283447 142.804947
34 142.804947 -0.000060 0.000060 0.304870 1.030370 162.663895 142.804947
35 142.804947 -0.000060 0.000060 0.314441 1.035646 163.573502 142.804947
36 142.804947 -0.000060 0.000060 0.324093 1.040770 164.483093 142.804947
37 142.804947 -0.000060 0.000060 0.325901 1.028612 165.081863 142.804947
[BN_R_Leg_Front03]
33 124.143005 -0.000060 -0.000156 -0.352599 -0.194697 -154.113174 124.143005
34 124.143005 -0.000060 -0.000156 -0.352323 -0.195196 -154.275543 124.143005
35 124.143005 -0.000060 -0.000156 -0.352957 -0.191084 -154.683609 124.143005
36 124.143005 -0.000060 -0.000156 -0.353620 -0.186977 -155.091675 124.143005
37 124.143005 -0.000060 -0.000156 -0.352614 -0.185467 -155.385269 124.143005
[BN_R_Leg_Rear02]
33 139.939011 -0.000149 0.000015 -0.006804 -0.245711 -118.194557 139.939011
34 139.939011 -0.000149 0.000015 -0.001713 -0.248258 -118.586113 139.939011
35 139.939011 -0.000149 0.000015 0.001083 -0.246135 -119.299652 139.939011
36 139.939011 -0.000149 0.000015 0.003851 -0.243978 -120.013199 139.939011
37 139.939011 -0.000149 0.000015 0.004797 -0.243963 -120.457626 139.939011
[BN_R_Leg_Rear03]
33 142.839417 0.000075 0.000119 0.002160 -0.000919 136.076263 142.839417
34 142.839417 0.000075 0.000119 0.002157 -0.000924 136.390717 142.839417
35 142.839417 0.000075 0.000119 0.002153 -0.000935 136.943634 142.839417
36 142.839417 0.000075 0.000119 0.002148 -0.000945 137.496552 142.839417
37 142.839417 0.000075 0.000119 0.002146 -0.000952 137.835800 142.839417
[BN_SackDef01]
33 605.471619 -16.006565 104.694885 -128.408218 -44.374973 -11.740845 614.665039
34 589.096130 -15.442752 101.852188 -128.408218 -44.374973 -11.740845 598.035583
35 567.763062 -14.708115 98.149147 -128.408218 -44.374973 -11.740845 576.371826
36 542.390381 -13.834644 93.744568 -128.408218 -44.374973 -11.740845 550.605835
37 513.897278 -12.853714 88.798302 -128.408218 -44.374973 -11.740845 521.671143
[BN_SackDef02]
33 235.112686 -214.385391 119.793625 32.077126 -27.375721 -88.781525 339.984680
34 230.678085 -207.375885 116.381302 32.077126 -27.375721 -88.781525 331.303101
35 224.900925 -198.244125 111.935974 32.077126 -27.375721 -88.781525 320.016907
36 218.029892 -187.383331 106.648766 32.077126 -27.375721 -88.781525 306.632507
37 210.015610 -174.715469 100.481827 32.077126 -27.375721 -88.781525 291.081879
[BN_SackDef03]
33 605.471558 -16.006527 -104.695358 18.144459 44.375008 -11.740894 614.665039
34 589.096191 -15.442734 -101.852722 18.144459 44.375008 -11.740894 598.035767
35 567.763000 -14.708096 -98.149132 18.144459 44.375008 -11.740894 576.371704
36 542.390259 -13.834606 -93.744644 18.144459 44.375008 -11.740894 550.605713
37 513.897278 -12.853657 -88.798439 18.144459 44.375008 -11.740894 521.671204
[BN_SackDef04]
33 235.112625 -214.385391 -119.793625 146.059982 27.375723 -88.781555 339.984650
34 230.678055 -207.375870 -116.381279 146.059982 27.375723 -88.781555 331.303070
35 224.900848 -198.244049 -111.935707 146.059982 27.375723 -88.781555 320.016724
36 218.029770 -187.383224 -106.648537 146.059982 27.375723 -88.781555 306.632294
37 210.015549 -174.715378 -100.481697 146.059982 27.375723 -88.781555 291.081726
[BN_SackDef05]
33 293.032074 268.220734 -166.270462 0.155741 51.314110 90.605110 430.646057
34 285.010254 257.997772 -161.554367 0.155741 51.314110 90.605110 417.005402
35 274.559753 244.679764 -155.410278 0.155741 51.314110 90.605110 399.253815
36 262.130432 228.839798 -148.102921 0.155741 51.314110 90.605110 378.172577
37 248.172455 211.051865 -139.896866 0.155741 51.314110 90.605110 354.547028
[BN_SackDef06]
33 293.032166 268.220886 166.270020 152.058487 -51.314072 90.605019 430.646057
34 285.010284 257.997955 161.553894 152.058487 -51.314072 90.605019 417.005341
35 274.559875 244.679916 155.409988 152.058487 -51.314072 90.605019 399.253906
36 262.130524 228.839905 148.102692 152.058487 -51.314072 90.605019 378.172607
37 248.172592 211.051941 139.896606 152.058487 -51.314072 90.605019 354.547058
